/* XPM */
static char *_ce0855717a74fba8d2b2987b18db322UpsJMKp1mcNkubYA[] = {
/* columns rows colors chars-per-pixel */
"32 32 9 1 ",
"  c None",
". c #2A1D0D",
"X c #572B10",
"o c #403022",
"O c #AD5B40",
"+ c #9C7552",
"@ c #75F4C1",
"# c #F5C187",
"$ c #F5DDA6",
/* pixels */
"                                ",
"                                ",
"           ##+$                 ",
"          $++$##                ",
"          #$$##$                ",
"      o   $XXXX$  .             ",
"      XX  $oOOO# ..             ",
"      XXo #+ooo+ .     $$#      ",
"      O .######$$#+   $+++#     ",
"      O ##++$##+$+####+   +     ",
"     OOXX+#$+#+$OO++++          ",
"     OOXXXooo$$XXOO             ",
"      XX  oooooooXOO            ",
"           ooooo  XOO           ",
"           ooooo   OO           ",
"           ..oo.   OO           ",
"           +@...@  OX           ",
"          ooo+@@ooOX            ",
"          ++o+@@o+X             ",
"         #$##o.o++              ",
"        #$$##o.o+++             ",
"        #$$#+o..+++             ",
"       +$$#++o..++++            ",
"       +##+++o..++++            ",
"       ++++  o..++++            ",
"       +++   o.  +++o           ",
"        ..   o     oo           ",
"        ...        ooo          ",
"         ..         oo          ",
"         ..          o.         ",
"        ooo           ..        ",
"                                "
};
