/* XPM */
static char *_cdd30356c65449c88f044ab92ab298aDLF1cHfr9g38cbPP[] = {
/* columns rows colors chars-per-pixel */
"32 32 9 1 ",
"  c None",
". c #2A1D0D",
"X c #572B10",
"o c #403022",
"O c #AD5B40",
"+ c #9C7552",
"@ c #75F4C1",
"# c #F5C187",
"$ c #F5DDA6",
/* pixels */
"                                ",
"                                ",
"                                ",
"                                ",
"         ##+$                   ",
"        $++$##                  ",
"        #$$##$                  ",
"    o   $XXXX$  .    $##        ",
"    XX  $oOOO# ..   $+++###     ",
"    XXo #+ooo+ .####+   ++      ",
"    O .######$$#++++            ",
"    O ##++$##+$+                ",
"   OOXX+#$+#+$OO                ",
"   OOXXXooo$$XXOO               ",
"    XX  oooooooXOO              ",
"         ooooo  XOO             ",
"         ooooo   OO             ",
"         ..oo.   OO             ",
"         +@...@  OX             ",
"        ooo+@@ooOX              ",
"       #$##o@@++                ",
"      #$$##o.o+++               ",
"      #$$#+o.o++++              ",
"     +$$#++o..++++              ",
"     +##+++o..+++++             ",
"     ++++  o.. ++++             ",
"     +++.  o..  +++o            ",
"       ... o.     ooo           ",
"        ...o       ooo          ",
"         ..          o.         ",
"        ooo           ..        ",
"                                "
};
