/* XPM */
static char *_8c27d05a83c416be8e72cacba4c2741BUqDyYSBVe77N17O[] = {
/* columns rows colors chars-per-pixel */
"32 32 6 1 ",
"  c None",
". c #72683E",
"X c #DFB500",
"o c #E8C831",
"O c #F8D634",
"+ c #FFF83A",
/* pixels */
"                                ",
"                                ",
"                                ",
"                                ",
"                                ",
"                                ",
"                                ",
"             ......             ",
"            .++.+++.            ",
"           .OO.+ooo+.           ",
"          .++.+oO+Oo+.          ",
"          .OO.+oO+Oo+.          ",
"          .++.+oO+Oo+.          ",
"         .OO.+o+O+O+o+.         ",
"         .++.+o+O+O+o+.         ",
"         .++.oo+++++oo.         ",
"         .OO.ooXO+OXoo.         ",
"         .++.oooO+Oooo.         ",
"         .OO.oooO+Oooo.         ",
"          .XX.XoO+Ooo.          ",
"          .OO.XoO+OoX.          ",
"          .XX.XoXXXoX.          ",
"           .OO.Xoooo.           ",
"            .XX.XXX.            ",
"             ......             ",
"                                ",
"                                ",
"                                ",
"                                ",
"                                ",
"                                ",
"                                "
};
