/* XPM */
static char *result[] = {
/* columns rows colors chars-per-pixel */
"32 32 7 1 ",
"  c #936F4B",
". c #8F6363",
"X c #BB835F",
"o c #634323",
"O c #432300",
"+ c #6F6B1B",
"@ c white",
/* pixels */
"            ....    ...         ",
"...        .          ....   .  ",
"           .Xo              .  .",
"         ..XoO             ..   ",
"        ..                      ",
"+     ..            +         + ",
"   +               +     +   + +",
"  +      ....       + + +       ",
"            .              +    ",
"+    .. ..        +   + +       ",
"  ....   ...  ..             + +",
"  .        ..  ..     +   + +   ",
"            .                   ",
"                         + ...  ",
"    ..                          ",
"     ..              ...    ..  ",
"          ...   ..              ",
" .       ..      ..        .    ",
"     +            .    +   .    ",
"  ..              ..            ",
"  .  +  .     +    .            ",
"     +  .      +   .. Xo     .. ",
"       ..  .         XoO        ",
"       .    ..        .....     ",
"  .    .     ..                 ",
"  .           .                 ",
"  ..         +.         +       ",
"   .Xo         ... ..      .    ",
"   XoO              ..   ...    ",
"     .                       Xo ",
"     .  ....  .....    +    XoO ",
"                                "
};
