/* XPM */
static char *result[] = {
/* columns rows colors chars-per-pixel */
"32 32 7 1 ",
"  c #936F4B",
". c #8F6363",
"X c #6F6B1B",
"o c #BB835F",
"O c #634323",
"+ c #432300",
"@ c white",
/* pixels */
"                      .         ",
"    .    .                      ",
"               .                ",
"           X             X      ",
" X                  .           ",
"    X      .        .  X    X   ",
"X          ..            X      ",
"  X                             ",
"                .  . oO      .  ",
"      ..     ..    .oO+         ",
"      .                         ",
"            X         .         ",
"  .       .  X          .      X",
"    .                          X",
"          ..                 .  ",
"           .  .     .           ",
" X         .  .         .       ",
"   .       .                    ",
"        X         .   X         ",
"                                ",
"      X              X          ",
"            .. ..        X      ",
"  .     X    .        X      .  ",
"                                ",
"                                ",
"             ..                 ",
"  .    oO    .       .   .   .  ",
"  ... oO+   ..    X      .      ",
"           ..       .        X  ",
"      ..                        ",
"       ..           X     .     ",
"                                "
};
