/* XPM */
static char *f1a60d24bb9a4aa0a837a3f4d98d8ed5XA8hT30dX8ZulapK[] = {
/* columns rows colors chars-per-pixel */
"32 32 9 1 ",
"  c None",
". c #521E2E",
"X c #63492C",
"o c #5F6367",
"O c #A52D27",
"+ c #C96D45",
"@ c #CCA562",
"# c #7CA8D5",
"$ c #ACDCF1",
/* pixels */
"                                ",
"                       ...      ",
"                       . .      ",
"                      ... .     ",
"                      .....     ",
"                 .......        ",
"            ++  .OOO..          ",
"           OOX+OOXOO+...++      ",
"          +++.++O+OXX+.OOOO+    ",
"          ...++++OXXOOO++O..    ",
"            O++++++++.O++...    ",
"            XO++#O+..XX.....    ",
"            OOO#$#..X..O  .     ",
"            OOXO#..O....  .     ",
"             .O+..O@O...  .     ",
"         OX++.X+ O.X....  .     ",
"        OX++..   ...X...  .     ",
"        OO+.      ...O..  ..    ",
"       ++.        ....OO  . $   ",
"       +..       .+..++.   $    ",
"      ....     ..++..+..        ",
"        .     ...     ..        ",
"       .    +...      ..        ",
"           ++.       ...        ",
"           +..       ++..       ",
"           +..       ++..       ",
"           ++.       +++.       ",
"           O+.       .+O.       ",
"           O++.      .++.       ",
"           +++..      ...       ",
"         ++++++ooooooo++        ",
"                                "
};
