/* XPM */
static char *_ce3fea802ff43c7b1c71e7b0399f42fr5zt24N3MqyQujH1[] = {
/* columns rows colors chars-per-pixel */
"32 32 9 1 ",
"  c None",
". c #521E2E",
"X c #63492C",
"o c #5F6367",
"O c #A52D27",
"+ c #C96D45",
"@ c #CCA562",
"# c #7CA8D5",
"$ c #ACDCF1",
/* pixels */
"                                ",
"                        ..      ",
"                        ...     ",
"                       ....     ",
"                      ...       ",
"                 .......        ",
"            ++  .OOO..          ",
"           OOX+OOXOO+...++      ",
"          +++.++O+OXX+.OOOO+    ",
"          ...++++OXXOOO++O..    ",
"            O++++++++.O++...    ",
"            X#++#O+..XX.....    ",
"            #$##$#..X..O  .     ",
"            O#XO#..O....  .     ",
"             .O+..O@O...  .     ",
"            ..X+ O.X....  .     ",
"         OX++.   ...X...  $     ",
"        OX++.     ...O..  .$    ",
"        OO+.      ....OO  .     ",
"       ++.       .+..++.        ",
"       +..     ..++..+..        ",
"       ..     ...     ..        ",
"      . .   +...      ..        ",
"           ++.       ...        ",
"           +..       ++..       ",
"           +..       ++..       ",
"           ++.       +++.       ",
"           O+.       .+O.       ",
"           O++.      .++.       ",
"           +++..      ...       ",
"         ++++++ooooooo++        ",
"                                "
};
