/* XPM */
static char *b44b4d9c4bb34656d8ac2d4ea9f93e2eBaWch0wHK5RU5c6M[] = {
/* columns rows colors chars-per-pixel */
"32 32 9 1 ",
"  c None",
". c #521E2E",
"X c #63492C",
"o c #5F6367",
"O c #A52D27",
"+ c #C96D45",
"@ c #CCA562",
"# c #7CA8D5",
"$ c #ACDCF1",
/* pixels */
"                       ..       ",
"                      ....      ",
"                     .....      ",
"                     ...        ",
"                .......         ",
"           ++  .OOO..           ",
"          OOX+OOXOO+...++       ",
"         +++.++O+OXX+.OOOO+     ",
"         ...++++OXXOOO++O..     ",
"           O++++++++.O++...     ",
"           X#++#O+..XX.....     ",
"           #$##$#..X..O  .      ",
"           O#XO#..O....  .      ",
"            .O+..O@O...  .      ",
"           ..X+ O.X....  $      ",
"        OX++.   ...X... $.      ",
"       OX++.     ...O.. $..     ",
"       OO+.      ....OO  $      ",
"      ++.       .+..++.         ",
"      +..     ..++..+..         ",
"      ...    ...     ..         ",
"      . .   ...      ..         ",
"      .     +.        .         ",
"           ++.       ...        ",
"           +..       ++..       ",
"           +..       ++..       ",
"           ++.       +++.       ",
"           O+.       .+O.       ",
"           O++.      .++.       ",
"           +++..      ...       ",
"         ++++++ooooooo++        ",
"                                "
};
